<svg width="19" height="19" viewBox="0 0 19 19" fill="none" xmlns="http://www.w3.org/2000/svg">
<g clip-path="url(#clip0_25_151)">
<path d="M8.9622 0.693286C6.5817 0.705441 4.30353 1.66275 2.62886 3.35461C0.954192 5.04647 0.0202008 7.33429 0.0323556 9.71479C0.0445104 12.0953 1.00182 14.3735 2.69368 16.0481C4.38553 17.7228 6.67336 18.6568 9.05386 18.6446L9.00803 9.66896L8.9622 0.693286Z" fill="#B5B2FF" fill-opacity="0.5"/>
<path fill-rule="evenodd" clip-rule="evenodd" d="M17.4282 5.52922C17.8252 6.48772 18.0295 7.51504 18.0295 8.55252H10.1293V0.652252C11.1668 0.652252 12.1941 0.856599 13.1526 1.25362C14.1111 1.65065 14.982 2.23258 15.7156 2.96619C16.4492 3.6998 17.0311 4.57071 17.4282 5.52922ZM12.9393 7.39267C13.7678 7.39267 14.4393 6.7211 14.4393 5.89267C14.4393 5.06424 13.7678 4.39267 12.9393 4.39267C12.1109 4.39267 11.4393 5.06424 11.4393 5.89267C11.4393 6.7211 12.1109 7.39267 12.9393 7.39267Z" fill="#B5B2FF"/>
</g>
<defs>
<clipPath id="clip0_25_151">
<rect width="18" height="18" fill="white" transform="translate(0.0397949 0.652252)"/>
</clipPath>
</defs>
</svg>
